<svg width="341" height="443" viewBox="0 0 341 443" fill="none" xmlns="http://www.w3.org/2000/svg">
  <style>
    .icon-fill { fill: #4caf50; }
    @media (prefers-color-scheme: dark) {
      .icon-fill { fill: #fff; }
    }
  </style>

  <g clip-path="url(#clip0_254_9)">
    <path class="icon-fill" d="M317.287 256.57C313.69 254.795 310.244 252.309 306.444 251.397C298.337 249.368 291.294 251.853 285.721 258.243C277.715 267.372 269.709 276.501 261.298 286.086C258.613 284.057 256.13 282.181 253.597 280.254C239.764 269.654 230.289 270.009 217.571 281.674C209.211 289.281 200.851 296.888 192.541 304.445C172.78 288.419 168.98 286.238 144.456 305.814C137.819 302.061 132.093 296.787 125.608 295.671C119.578 294.657 112.636 297.548 106.404 299.576C101.743 301.098 99.3106 300.641 96.9291 296.026C91.4569 285.63 85.4274 275.588 79.4991 265.445C71.9495 252.614 57.965 250.179 46.5139 259.612C42.055 263.315 37.6468 267.118 33.188 270.871C-11.9071 212.599 -15.4032 116.29 49.858 49.7517C110.103 -11.6141 212.454 -16.8885 278.12 37.7321C350.272 97.7286 355.998 195.204 317.287 256.62V256.57ZM170.551 49.1431C108.988 48.636 58.4717 98.895 57.9143 161.275C57.3063 222.894 108.33 274.016 170.601 274.219C231.961 274.421 282.123 224.264 282.731 162.137C283.339 100.011 233.329 49.5996 170.551 49.0924V49.1431Z" />
    <path class="icon-fill" d="M36.5321 275.842C41.903 271.328 46.9699 266.611 52.4421 262.554C59.9917 257.026 68.96 259.308 74.1283 267.93C80.9685 279.392 87.7074 290.904 94.0917 302.619C96.5238 307.032 98.8545 308.908 103.82 306.423C107.215 304.75 111.066 303.887 114.663 302.67C126.114 298.867 131.891 300.997 137.92 311.343C144.608 322.855 151.246 334.469 157.934 345.981C158.948 347.706 160.012 349.379 161.38 351.611C167.764 348.01 173.793 344.51 179.924 341.062C191.021 334.824 199.229 336.092 207.285 345.626C216.406 356.429 225.323 367.434 234.596 378.642C234.241 379.504 233.988 380.417 233.481 381.178C223.803 395.632 214.328 410.187 204.397 424.489C190.666 444.319 167.511 448.731 149.017 434.835C144.76 431.64 141.214 427.177 138.123 422.765C106.708 377.374 75.4963 331.832 44.1831 286.34C41.8017 282.891 39.2176 279.544 36.4814 275.791L36.5321 275.842Z" />
    <path class="icon-fill" d="M163.406 343.902C157.225 333.201 151.499 323.21 145.368 312.61C151.499 308.198 157.326 303.685 163.558 299.678C168.777 296.28 174.047 297.447 178.759 301.098C183.218 304.547 187.524 308.249 192.541 312.306C196.543 308.705 200.496 305.105 204.498 301.453C210.781 295.722 217.014 289.941 223.347 284.311C231.556 277.059 239.105 276.755 247.922 283.246C252.482 286.593 256.89 290.093 262.007 293.998C267.834 287.405 273.509 280.913 279.184 274.472C282.68 270.517 286.024 266.459 289.622 262.656C297.323 254.44 305.38 254.44 313.487 262.453C288.507 299.475 263.527 336.447 238.244 373.875C229.579 363.377 221.067 353.132 212.656 342.888C201.965 329.904 191.071 327.927 176.479 336.345C172.324 338.729 168.169 341.163 163.457 343.851L163.406 343.902Z" />
    <path class="icon-fill" d="M74.3817 203.116C57.7624 170.1 62.1199 116.595 101.388 81.9056C138.224 49.3462 194.77 47.419 235.052 78.5076C275.891 110.002 284.302 163.507 267.227 201.797C264.693 198.653 262.109 195.863 260.032 192.77C251.519 180.091 243.007 167.361 234.849 154.429C233.177 151.792 232.975 148.292 231.911 145.249C231.303 143.576 230.644 141.801 229.478 140.482C221.473 131.556 213.264 122.833 205.31 113.907C200.901 108.937 195.784 107.111 190.261 110.712C185.599 113.704 181.09 117.559 177.898 122.072C170.5 132.418 164.116 143.474 156.972 154.023C154.996 156.914 152.057 159.196 149.321 161.428C147.497 162.949 145.115 163.862 143.19 165.333C136.197 170.607 135.589 170.353 130.624 162.695C128.496 159.399 125.557 156.407 122.466 153.972C118.615 150.879 114.157 152.349 111.674 155.697C106.05 163.253 99.26 170.759 96.4226 179.432C92.5211 191.451 83.4007 196.827 74.4324 203.268L74.3817 203.116Z" />
    <path class="icon-fill" d="M208.957 182.627C227.756 190.944 246.199 199.109 265.25 207.579C244.831 244.601 214.936 264.228 174.097 266.814C139.592 268.995 100.02 248.607 83.0459 219.192C91.5076 219.649 99.3612 219.192 106.708 220.765C114.663 222.489 116.741 222.387 121.098 215.338C122.466 213.107 125 211.585 126.925 209.607C128.293 208.238 129.509 206.716 131.789 204.13C133.36 203.826 136.653 203.217 139.896 202.608C139.896 202.253 139.896 201.848 139.896 201.493C136.755 201.341 133.664 201.138 130.674 200.986C129.256 197.131 128.85 192.313 126.216 190.082C123.986 188.155 119.274 189.169 114.46 188.763C116.538 179.026 118.565 169.288 120.895 158.283C124.746 162.543 127.989 166.195 131.282 169.795C137.059 176.135 138.224 176.186 144.406 170.201C146.382 171.469 148.358 172.788 150.283 174.106C150.79 173.802 151.246 173.701 151.398 173.447C158.34 160.717 159.049 160.717 167.207 172.483C169.841 176.287 172.881 179.888 176.175 183.134C177.34 184.3 180.076 185.112 181.495 184.554C182.812 184.047 183.724 181.511 184.029 179.786C185.042 174.258 184.029 167.564 186.815 163.253C195.277 149.915 192.389 133.787 198.976 120.145C199.736 118.522 199.533 116.392 199.786 114.11C200.749 114.769 201.661 115.175 202.269 115.885C207.944 122.833 212.656 130.897 219.446 136.526C227.705 143.322 227.604 152.248 229.529 161.072C230.846 167.057 233.43 172.788 235.559 178.62C237.079 182.677 238.801 186.684 240.625 191.096C230.542 189.93 226.235 185.822 224.462 175.932C222.993 167.767 222.03 159.5 220.561 151.386C219.953 148.14 218.534 145.046 217.318 141.243C214.379 155.798 211.643 169.39 208.957 182.728V182.627Z" />
  </g>
</svg>
